<svg viewBox="0 0 64 64" xmlns="http://www.w3.org/2000/svg"><path d="M32 5.332A2.669 2.669 0 0 1 34.668 8v2.668A2.666 2.666 0 0 1 32 13.332a2.666 2.666 0 0 1-2.668-2.664V8A2.669 2.669 0 0 1 32 5.332ZM52.55 11.45a2.662 2.662 0 0 1 0 3.769l-2.663 2.668a2.674 2.674 0 0 1-3.774 0 2.674 2.674 0 0 1 0-3.774l2.668-2.664a2.662 2.662 0 0 1 3.77 0ZM50.668 32a2.666 2.666 0 0 1 2.664-2.668H56a2.669 2.669 0 0 1 0 5.336h-2.668A2.666 2.666 0 0 1 50.668 32ZM5.332 32A2.669 2.669 0 0 1 8 29.332h2.668A2.666 2.666 0 0 1 13.332 32a2.666 2.666 0 0 1-2.664 2.668H8A2.669 2.669 0 0 1 5.332 32ZM11.45 11.45a2.662 2.662 0 0 1 3.769 0l2.668 2.663a2.674 2.674 0 0 1 0 3.774 2.674 2.674 0 0 1-3.774 0l-2.664-2.668a2.662 2.662 0 0 1 0-3.77ZM32 16c-8.836 0-16 7.164-16 16 0 4.355 1.742 8.309 4.566 11.191.711.73 1.098 1.399 1.215 1.993l1.414 7.05a7.998 7.998 0 0 0 7.844 6.434h1.922a7.998 7.998 0 0 0 7.844-6.434l1.414-7.05c.117-.594.504-1.262 1.215-1.993A15.946 15.946 0 0 0 48 32c0-8.836-7.164-16-16-16Zm-2.668 26.668a2.666 2.666 0 0 0 0 5.332h5.336a2.666 2.666 0 0 0 0-5.332Zm0 0" fill="currentColor"/></svg>
