<svg viewBox="0 0 64 64" xmlns="http://www.w3.org/2000/svg"><path d="M6.258 0a6.257 6.257 0 1 0-.003 12.513A6.257 6.257 0 0 0 6.258 0ZM32 0a6.257 6.257 0 1 0 0 12.512A6.256 6.256 0 1 0 32 0ZM57.742 12.512A6.256 6.256 0 1 0 57.746 0a6.256 6.256 0 0 0-.004 12.512ZM6.258 25.742A6.257 6.257 0 0 0 0 32a6.257 6.257 0 1 0 12.512 0c0-3.457-2.801-6.258-6.254-6.258ZM32 25.742A6.257 6.257 0 0 0 25.742 32c0 3.457 2.801 6.258 6.258 6.258s6.258-2.801 6.258-6.258-2.801-6.258-6.258-6.258ZM57.742 25.742A6.256 6.256 0 0 0 51.488 32 6.256 6.256 0 1 0 64 32c0-3.457-2.8-6.258-6.258-6.258ZM6.258 51.488A6.256 6.256 0 1 0 6.254 64a6.256 6.256 0 0 0 .004-12.512ZM32 51.488A6.256 6.256 0 1 0 32 64a6.257 6.257 0 1 0 0-12.512ZM57.742 51.488A6.256 6.256 0 1 0 57.746 64a6.256 6.256 0 0 0-.004-12.512Zm0 0" fill="currentColor"/></svg>
