<svg viewBox="0 0 64 64" xmlns="http://www.w3.org/2000/svg"><path d="M61.8 27.2c-.198-.2-.198-.4-.402-.598l-8-8c-.796-.801-2-.801-2.796 0-.801.796-.801 2 0 2.796L55.199 26H44V6c0-1.2-.8-2-2-2H8c-.2 0-.602 0-.8.2H7s-.2 0-.2.198l-.198.204c-.204.199-.403.398-.403.597v.2C6 5.601 6 5.8 6 6v44c0 .8.398 1.602 1.2 1.8l18 8c.198.2.6.2.8.2.398 0 .8-.2 1-.398.602-.403 1-1 1-1.602v-6h14c1.2 0 2-.8 2-2V30h11.2l-4.598 4.602c-.801.796-.801 2 0 2.796.398.403 1 .602 1.398.602.398 0 1-.2 1.398-.602l8-8c.204-.199.403-.398.403-.597.199-.602.199-1 0-1.602ZM20 42c0 1.2-.8 2-2 2s-2-.8-2-2v-8c0-1.2.8-2 2-2s2 .8 2 2Zm20-22v28H28V14c0-.8-.398-1.602-1.2-1.8L17.399 8H40Zm0 0" fill="currentColor"/></svg>
