<svg viewBox="0 0 64 64" xmlns="http://www.w3.org/2000/svg"><path d="M3.84 5.121A3.847 3.847 0 0 0 0 8.961v33.398c1.875-9.98 3.977-21.175 4.078-21.718.652-3.317 3.152-5.282 6.723-5.282h49.36v-1.28a3.85 3.85 0 0 0-3.84-3.84H23.077c-.351-.13-1.082-1.29-1.476-1.919-.989-1.57-1.997-3.199-3.68-3.199Zm6.96 12.8c-1.64 0-3.679.575-4.198 3.24-.168.827-5.153 27.362-6.602 35.077v.082a3.85 3.85 0 0 0 3.84 3.84h49.922c2.074 0 3.77-1.66 3.84-3.719L63.96 22l.039-.238a3.847 3.847 0 0 0-3.84-3.84Zm0 0" fill="currentColor"/></svg>
