<svg viewBox="0 0 64 64" xmlns="http://www.w3.org/2000/svg"><path d="M53.21 14.781c-11.472-11.406-29.925-11.66-41.706-.57C-.277 25.297-1.148 43.73 9.539 55.875l.024.023c.042.047.078.09.124.133.094.106.2.223.32.348A5.154 5.154 0 0 0 13.794 58a5.167 5.167 0 0 0 3.762-1.672 19.638 19.638 0 0 1 28.906 0 5.148 5.148 0 0 0 7.582.004l.402-.437.02-.024c10.515-11.875 9.969-29.883-1.25-41.094ZM30 16a1.999 1.999 0 1 1 4 0v4a1.999 1.999 0 1 1-4 0ZM16 38h-4a1.999 1.999 0 1 1 0-4h4a1.999 1.999 0 1 1 0 4Zm6.102-11.898a2.006 2.006 0 0 1-2.829 0l-2.828-2.829a2 2 0 1 1 2.828-2.828l2.829 2.828a2.006 2.006 0 0 1 0 2.829Zm18.66 2.886-5.938 9.438c-.242.336-.539.633-.875.875a3.765 3.765 0 0 1-4.375-6.125l9.438-5.938a1.275 1.275 0 0 1 1.465 0c.558.403.687 1.188.285 1.75Zm3.965-2.886a1.995 1.995 0 0 1-2.79-.04 1.995 1.995 0 0 1-.039-2.789l2.829-2.828a2 2 0 1 1 2.828 2.828ZM52.96 54.55ZM52 38h-4a1.999 1.999 0 1 1 0-4h4a1.999 1.999 0 1 1 0 4Zm0 0" fill="currentColor"/></svg>
