<svg viewBox="0 0 64 64" xmlns="http://www.w3.org/2000/svg"><path d="M32 58.668C17.273 58.668 5.332 46.727 5.332 32 5.332 17.273 17.273 5.332 32 5.332c14.727 0 26.668 11.941 26.668 26.668 0 14.727-11.941 26.668-26.668 26.668ZM21.121 24.625v.27c0 .738.598 1.335 1.332 1.335h2.66a1.33 1.33 0 0 0 1.328-1.332c0-3.441 2.664-5.277 6.243-5.277 3.488 0 5.78 1.836 5.78 4.453 0 2.477-1.284 3.625-4.495 5.094l-.918.41c-2.707 1.195-3.719 2.98-3.719 6.106V36c0 .738.598 1.332 1.336 1.332h2.656a1.33 1.33 0 0 0 1.332-1.328c0-1.379.367-1.93 1.465-2.434l.922-.414c3.852-1.742 6.742-4.035 6.742-9.039v-.273c0-5.278-4.586-9.176-11.101-9.176-6.61 0-11.563 3.809-11.563 9.957ZM28 45.309c0 2.312 1.758 4.023 3.977 4.023 2.265 0 4.023-1.71 4.023-4.023 0-2.313-1.758-3.977-4.023-3.977-2.22 0-3.977 1.664-3.977 3.977Zm0 0" fill="currentColor"/></svg>
