<svg viewBox="0 0 64 64" xmlns="http://www.w3.org/2000/svg"><path d="M20 8c0-1.105.895-2 2-2 3.45 0 6.293 1.148 8.238 2.266.7.394 1.285.789 1.762 1.14a17.204 17.204 0 0 1 1.762-1.14C36.262 6.805 39.102 6.027 42 6a1.999 1.999 0 1 1 0 4c-2.55 0-4.707.852-6.258 1.734-.61.348-1.191.743-1.742 1.176V30h2a1.999 1.999 0 1 1 0 4h-2v17.09c.398.316.992.746 1.742 1.176C37.293 53.148 39.45 54 42 54a1.999 1.999 0 1 1 0 4 16.633 16.633 0 0 1-8.238-2.266c-.61-.343-1.2-.722-1.762-1.132-.563.41-1.152.793-1.762 1.136A16.593 16.593 0 0 1 22 58.004a1.999 1.999 0 1 1 0-4c2.55 0 4.707-.852 6.258-1.734.75-.43 1.34-.86 1.742-1.176V34h-2a1.999 1.999 0 1 1 0-4h2V12.91a14.177 14.177 0 0 0-1.742-1.176A12.697 12.697 0 0 0 22 10c-1.105 0-2-.895-2-2Zm0 0" fill="currentColor"/><path d="M40 20h16c2.21 0 4 1.79 4 4v16c0 2.21-1.79 4-4 4H40v4h16a8 8 0 0 0 8-8V24a8 8 0 0 0-8-8H40Zm-16 0v-4H8a8 8 0 0 0-8 8v16a8 8 0 0 0 8 8h16v-4H8c-2.21 0-4-1.79-4-4V24c0-2.21 1.79-4 4-4Zm0 0" fill="currentColor"/></svg>
