<svg viewBox="0 0 64 64" xmlns="http://www.w3.org/2000/svg"><path d="M31.758 18.063v-3.88l-4.067-.687a11.91 11.91 0 0 0-1.53-3.695l2.39-3.36-2.746-2.746-3.36 2.39a11.927 11.927 0 0 0-3.695-1.53L18.066.492h-3.882L13.5 4.555a11.927 11.927 0 0 0-3.695 1.53l-3.36-2.39L3.7 6.441l2.39 3.36a11.818 11.818 0 0 0-1.53 3.695l-4.067.688v3.879l4.067.683a11.8 11.8 0 0 0 1.53 3.7L3.7 25.804l2.746 2.742 3.36-2.39a11.741 11.741 0 0 0 3.695 1.53l.684 4.067h3.882l.684-4.067c1.332-.3 2.578-.824 3.695-1.53l3.36 2.39 2.746-2.742-2.39-3.36a11.894 11.894 0 0 0 1.53-3.699Zm-15.633 4.23a6.168 6.168 0 0 1-6.168-6.168 6.17 6.17 0 1 1 12.336 0 6.168 6.168 0 0 1-6.168 6.168Zm42.645 18.02 4.738-2.942-1.988-4.855-5.442 1.222a15.938 15.938 0 0 0-3.808-3.84l1.273-5.43-4.84-2.03-2.98 4.714a15.93 15.93 0 0 0-5.41-.023L37.37 22.39l-4.86 1.988 1.227 5.441a16.007 16.007 0 0 0-3.843 3.805l-5.43-1.27-2.027 4.84 4.714 2.98a15.83 15.83 0 0 0-.023 5.41l-4.738 2.942 1.988 4.856 5.441-1.223A15.92 15.92 0 0 0 33.625 56l-1.27 5.43 4.84 2.03 2.98-4.714c1.817.32 3.645.32 5.41.024l2.942 4.738 4.856-1.988-1.223-5.442A15.938 15.938 0 0 0 56 52.27l5.43 1.273 2.03-4.84-4.714-2.98c.32-1.82.32-3.645.024-5.41Zm-8.13 5.863a8.344 8.344 0 0 1-15.387-6.453 8.348 8.348 0 0 1 10.923-4.47c4.246 1.782 6.246 6.673 4.465 10.923Zm0 0" fill="currentColor"/></svg>
