<svg viewBox="0 0 64 64" xmlns="http://www.w3.org/2000/svg"><path d="M21.844 8.414a15.839 15.839 0 0 0-7.188 0 8.375 8.375 0 0 0-6.242 6.242 15.839 15.839 0 0 0 0 7.188 8.376 8.376 0 0 0 6.242 6.238 15.73 15.73 0 0 0 7.188 0 8.378 8.378 0 0 0 6.238-6.238 15.73 15.73 0 0 0 0-7.188 8.376 8.376 0 0 0-6.238-6.242ZM21.844 35.918a15.73 15.73 0 0 0-7.188 0 8.376 8.376 0 0 0-6.242 6.238 15.839 15.839 0 0 0 0 7.188 8.375 8.375 0 0 0 6.242 6.242c2.364.55 4.824.55 7.188 0a8.376 8.376 0 0 0 6.238-6.242 15.73 15.73 0 0 0 0-7.188 8.378 8.378 0 0 0-6.238-6.238ZM49.344 8.414a15.839 15.839 0 0 0-7.188 0 8.376 8.376 0 0 0-6.238 6.242 15.73 15.73 0 0 0 0 7.188 8.378 8.378 0 0 0 6.238 6.238 15.73 15.73 0 0 0 7.188 0 8.376 8.376 0 0 0 6.242-6.238c.55-2.364.55-4.824 0-7.188a8.375 8.375 0 0 0-6.242-6.242ZM49.344 35.918a15.73 15.73 0 0 0-7.188 0 8.378 8.378 0 0 0-6.238 6.238 15.73 15.73 0 0 0 0 7.188 8.376 8.376 0 0 0 6.238 6.242c2.364.55 4.824.55 7.188 0a8.375 8.375 0 0 0 6.242-6.242c.55-2.364.55-4.824 0-7.188a8.376 8.376 0 0 0-6.242-6.238Zm0 0" fill="currentColor"/></svg>
