<svg viewBox="0 0 64 64" xmlns="http://www.w3.org/2000/svg"><path d="M42.344 9.887a7.997 7.997 0 0 1 11.312 0l.457.457a7.997 7.997 0 0 1 0 11.312L23.22 52.551c-.34.344-.77.586-1.239.703l-10.668 2.668a2.666 2.666 0 0 1-2.53-.703 2.666 2.666 0 0 1-.704-2.532l2.668-10.667c.117-.47.36-.899.703-1.239l26.414-26.418Zm7.543 3.77a2.674 2.674 0 0 0-3.774 0l-2.629 2.628 4.149 4.313 2.71-2.711a2.674 2.674 0 0 0 0-3.774Zm-6.028 10.71-4.148-4.308L15.742 44.03l-1.41 5.637 5.637-1.41Zm0 0" fill="currentColor"/></svg>
