<svg viewBox="0 0 64 64" xmlns="http://www.w3.org/2000/svg"><path d="M32 0C14.328 0 0 14.328 0 32s14.328 32 32 32c17.676 0 32-14.328 32-32S49.676 0 32 0Zm0 9.57c5.848 0 10.586 4.739 10.586 10.582C42.586 26 37.848 30.738 32 30.738c-5.844 0-10.582-4.738-10.582-10.586C21.418 14.31 26.156 9.57 32 9.57Zm-.008 46.063a23.487 23.487 0 0 1-15.293-5.64 4.504 4.504 0 0 1-1.582-3.427c0-5.93 4.797-10.671 10.727-10.671H38.16c5.93 0 10.707 4.742 10.707 10.671a4.5 4.5 0 0 1-1.578 3.426 23.49 23.49 0 0 1-15.297 5.64Zm0 0" fill="currentColor"/></svg>
