<svg viewBox="0 0 64 64" xmlns="http://www.w3.org/2000/svg"><path d="M55.758 29.652V17.95c0-2.187-1.653-4.668-3.703-5.496L37.199 6.375a13.837 13.837 0 0 0-10.426 0l-14.855 6.078c-2.023.828-3.68 3.309-3.68 5.496v11.703c0 13.043 9.469 25.254 22.403 28.828.879.243 1.84.243 2.718 0 12.934-3.574 22.399-15.785 22.399-28.828ZM34 34.32v7.016c0 1.09-.906 2-2 2-1.094 0-2-.91-2-2V34.32c-2.695-.851-4.668-3.36-4.668-6.32a6.668 6.668 0 0 1 13.336 0c0 2.988-1.977 5.469-4.668 6.32Zm0 0" fill="currentColor"/></svg>
