<svg viewBox="0 0 64 64" xmlns="http://www.w3.org/2000/svg"><path d="m60.363 27.164-7.562-1.238a21.932 21.932 0 0 0-1.809-4.36l4.418-6.293a1.28 1.28 0 0 0-.144-1.64l-4.977-4.977a1.281 1.281 0 0 0-1.652-.133l-6.2 4.457a21.619 21.619 0 0 0-4.394-1.828l-1.32-7.53a1.278 1.278 0 0 0-1.258-1.063h-7.043c-.625 0-1.16.457-1.262 1.074l-1.223 7.496a21.65 21.65 0 0 0-4.398 1.805L15.355 8.52a1.281 1.281 0 0 0-1.652.132L8.73 13.63a1.28 1.28 0 0 0-.144 1.64l4.351 6.223a21.77 21.77 0 0 0-1.84 4.43l-7.464 1.242a1.28 1.28 0 0 0-1.07 1.262v7.039c0 .62.445 1.152 1.054 1.262l7.465 1.324a21.514 21.514 0 0 0 1.84 4.43L8.52 48.64a1.28 1.28 0 0 0 .132 1.648l4.977 4.98a1.28 1.28 0 0 0 1.64.145l6.235-4.367a21.736 21.736 0 0 0 4.41 1.824l1.25 7.5c.102.617.633 1.07 1.258 1.07h7.043c.62 0 1.152-.445 1.258-1.058l1.34-7.54a21.557 21.557 0 0 0 4.39-1.835l6.277 4.406c.508.36 1.2.297 1.641-.144l4.977-4.98c.441-.442.5-1.145.132-1.653l-4.476-6.219a21.675 21.675 0 0 0 1.8-4.36l7.575-1.331a1.279 1.279 0 0 0 1.059-1.262v-7.04a1.28 1.28 0 0 0-1.075-1.26ZM32 40.961A8.96 8.96 0 0 1 23.04 32 8.96 8.96 0 0 1 32 23.04 8.96 8.96 0 0 1 40.96 32 8.96 8.96 0 0 1 32 40.96Zm0 0" fill="currentColor"/></svg>
