<svg viewBox="0 0 64 64" fill="currentColor" xmlns="http://www.w3.org/2000/svg"><path d="m32 7.173c-13.689 0-24.826 11.138-24.826 24.827s11.137 24.827 24.826 24.827 24.826-11.138 24.826-24.827-11.137-24.827-24.826-24.827zm14.314 39.145c-3.684 3.708-8.783 6.009-14.41 6.009-5.63 0-10.73-2.303-14.414-6.013v-1.612c0-3.385 4.036-4.705 6.006-5.517.836-.344 2.233-1.009 3.651-1.703.496-.243.942-.888.998-1.438l.156-1.549c-1.03-1.005-1.963-2.444-2.323-4.199h-.227c-.398 0-.773-.298-.832-.663l-.396-2.453c0-.495.382-.808.764-.833-.135-.543-.207-1.214-.181-1.947.024-.659.121-1.268.267-1.771.163-.807.544-1.626 1.156-2.344 1.121-1.313 2.673-1.91 3.979-1.683 1.919-1.476 4.167-.761 6.107 1.075.71.672 1.228 1.453 1.551 2.259.31.574.496 1.57.455 2.702-.011.321-.045.625-.089.916-.018.209-.029.415-.067.635-.008.045-.016.098-.025.149.398 0 .893.317.841.842l-.398 2.453c-.059.365-.434.663-.832.663h-.252c-.171 1.622-1.182 3.076-2.304 4.121l.162 1.605c.056.55.502 1.193.998 1.436 1.468.718 2.896 1.402 3.654 1.727 2.093.895 6.005 2.132 6.005 5.517z"/></svg>
